<svg xmlns="http://www.w3.org/2000/svg" width="48" height="48" viewBox="0 0 48 48">
    <g fill="none" fill-rule="evenodd">
        <path fill="#FFF" d="M43.277 14.762c-1.091-2.543-2.591-4.763-4.498-6.661-1.909-1.896-4.14-3.39-6.696-4.474C29.528 2.542 26.819 2 23.956 2c-2.861 0-5.57.542-8.127 1.627-2.555 1.084-4.789 2.578-6.696 4.474-1.908 1.898-3.408 4.118-4.498 6.66C3.544 17.306 3 19.999 3 22.847c0 2.846.544 5.542 1.635 8.084 1.09 2.541 2.59 4.763 4.498 6.66 1.907 1.899 4.168 3.39 6.725 4.475.747.317 1.448.583 2.313.807v-1.818c-.865-.18-1.118-.383-1.649-.616-2.318-1.018-4.376-2.373-6.148-4.069a20.854 20.854 0 0 1-4.096-6.101c-1.022-2.303-1.537-4.778-1.537-7.422s.51-5.117 1.532-7.424a20.901 20.901 0 0 1 4.088-6.1 20.997 20.997 0 0 1 6.134-4.068c2.315-1.018 4.804-1.525 7.461-1.525 2.659 0 5.145.507 7.463 1.525a21.027 21.027 0 0 1 6.133 4.068 20.94 20.94 0 0 1 4.09 6.1c1.022 2.307 1.533 4.78 1.533 7.424s-.511 5.12-1.534 7.422a20.853 20.853 0 0 1-4.089 6.101c-1.773 1.696-4.003 3.051-6.319 4.069-.532.233-.943.436-1.808.616v1.818c.865-.224 1.723-.49 2.471-.807 2.556-1.085 4.88-2.576 6.79-4.475a21.055 21.055 0 0 0 4.544-6.66 20.324 20.324 0 0 0 1.66-8.084c0-2.848-.524-5.541-1.613-8.084"/>
        <path fill="#FFF" d="M21.96 36.928v2.115h3.92v-2.115c0-.263-.052-.512-.156-.747a2.038 2.038 0 0 0-.427-.622 1.797 1.797 0 0 0-.616-.426 1.927 1.927 0 0 0-.76-.155c-.265 0-.518.052-.761.155a1.797 1.797 0 0 0-.616.426c-.18.18-.323.387-.427.622a1.813 1.813 0 0 0-.156.747zm5.291 2.115h1.266V45.5h-9.121v-6.457h1.194v-2.151c0-.458.09-.885.27-1.284.18-.398.42-.747.72-1.045.3-.298.65-.537 1.05-.716.4-.18.83-.269 1.29-.269.46 0 .89.09 1.29.269.401.18.75.418 1.051.716.3.298.54.647.72 1.045.18.399.27.826.27 1.284v2.15zM23.956 9.2h1.738v17.287H13.529v-1.73h10.427z"/>
        <path d="M0 0h48v48H0z"/>
    </g>
</svg>
