<svg xmlns="http://www.w3.org/2000/svg" width="48" height="48" viewBox="0 0 48 48">
    <defs>
        <path id="a" d="M3 2h42.607v42.607H3z"/>
    </defs>
    <g fill="none" fill-rule="evenodd">
        <path fill="#FFF" d="M21.794 25.319l-7.831-10.083a.876.876 0 0 1-.147-.636.753.753 0 0 1 .343-.539.67.67 0 0 1 .49-.196.67.67 0 0 1 .488.196l10.181 7.732c.064 0 .13.067.196.196.26.263.472.54.636.833.162.294.245.637.245 1.028 0 .327-.066.653-.196.979a1.795 1.795 0 0 1-.587.784 1.78 1.78 0 0 1-.784.586 2.585 2.585 0 0 1-.978.196c-.391 0-.752-.098-1.077-.294a4.397 4.397 0 0 1-.88-.684l-.099-.098zM23.85 3c2.87 0 5.58.539 8.124 1.616 2.545 1.076 4.763 2.561 6.657 4.453 1.891 1.895 3.376 4.112 4.453 6.657C44.162 18.27 44.7 20.98 44.7 23.85c0 2.872-.538 5.58-1.616 8.124-1.077 2.545-2.562 4.765-4.453 6.657-1.894 1.893-4.112 3.377-6.657 4.453C29.43 44.161 26.72 44.7 23.85 44.7c-2.872 0-5.58-.539-8.125-1.616-2.545-1.076-4.763-2.56-6.657-4.453-1.893-1.892-3.376-4.112-4.453-6.657C3.54 29.43 3 26.722 3 23.85c0-1.434.13-2.84.392-4.21.26-1.37.684-2.674 1.272-3.914a20.393 20.393 0 0 1 1.91-3.524A25.32 25.32 0 0 1 9.068 9.07l1.175 1.175a24.368 24.368 0 0 0-2.3 2.888 21.173 21.173 0 0 0-1.81 3.278 19.72 19.72 0 0 0-1.077 3.573 19.066 19.066 0 0 0-.392 3.867c0 2.676.505 5.174 1.518 7.489 1.011 2.316 2.364 4.355 4.061 6.117a20.609 20.609 0 0 0 6.118 4.062c2.317 1.013 4.813 1.517 7.489 1.517 2.675 0 5.17-.504 7.488-1.517 2.315-1.01 4.355-2.364 6.118-4.062a20.666 20.666 0 0 0 4.061-6.117c1.012-2.315 1.518-4.813 1.518-7.489 0-2.545-.474-4.958-1.42-7.244a19.34 19.34 0 0 0-3.963-6.068c-1.632-1.696-3.558-3.067-5.775-4.112-2.22-1.043-4.602-1.63-7.145-1.761v8.32h-1.763V3.88h.098V3h.782z"/>
        <path d="M0 0h48v48H0z"/>
    </g>
</svg>
