<svg xmlns="http://www.w3.org/2000/svg" width="42" height="42" viewBox="0 0 42 42">
    <defs>
        <path id="a" d="M3 2.008h41.742V43.75H3V2.008z"/>
    </defs>
    <g fill="none" fill-rule="evenodd">
        <path fill="#FFF" d="M20.871 19.703l8.23-8.328 1.275 1.273-8.329 8.231 8.231 8.231-1.176 1.175-8.231-8.23-8.23 8.23-1.177-1.175 8.23-8.23-8.328-8.232 1.274-1.273 8.231 8.328zM34.491 34.5c1.83-1.894 3.217-4.017 4.165-6.37a19.242 19.242 0 0 0 1.42-7.25c0-2.482-.473-4.9-1.42-7.251-.948-2.351-2.335-4.474-4.165-6.37-1.894-1.828-4.017-3.216-6.369-4.163a19.249 19.249 0 0 0-7.251-1.422c-2.483 0-4.899.475-7.251 1.422-2.351.947-4.475 2.335-6.369 4.164-1.83 1.895-3.217 4.018-4.164 6.369a19.244 19.244 0 0 0-1.421 7.251c0 2.482.474 4.9 1.42 7.25.948 2.353 2.335 4.476 4.165 6.37 1.894 1.829 4.018 3.218 6.369 4.165a19.247 19.247 0 0 0 7.251 1.42c2.483 0 4.899-.473 7.251-1.42 2.352-.947 4.475-2.336 6.369-4.165zM6.075 6.083c2.026-2.025 4.328-3.544 6.908-4.556C15.563.514 18.193.008 20.871.008s5.307.506 7.888 1.519c2.58 1.012 4.882 2.531 6.908 4.556 2.025 2.025 3.543 4.328 4.557 6.909 1.012 2.579 1.518 5.21 1.518 7.887 0 2.678-.506 5.308-1.518 7.888-1.014 2.58-2.532 4.883-4.557 6.908-2.026 2.024-4.328 3.544-6.908 4.556-2.58 1.013-5.21 1.52-7.888 1.52s-5.307-.507-7.888-1.52c-2.58-1.012-4.882-2.532-6.908-4.556-2.025-2.025-3.543-4.328-4.557-6.908C.506 26.187 0 23.557 0 20.879s.506-5.308 1.518-7.887c1.014-2.58 2.532-4.884 4.557-6.909z"/>
        <path d="M-3-2h48v48H-3z"/>
    </g>
</svg>
