<?xml version="1.0" encoding="UTF-8" standalone="no"?>
<svg width="13px" height="14px" viewBox="0 0 13 14" version="1.1" xmlns="http://www.w3.org/2000/svg" xmlns:xlink="http://www.w3.org/1999/xlink">
    <!-- Generator: sketchtool 3.8.3 (29802) - http://www.bohemiancoding.com/sketch -->
    <title>53E4EC62-F94B-4DFC-BBBA-F39BEE3D94F1</title>
    <desc>Created with sketchtool.</desc>
    <defs></defs>
    <g id="Symbols" stroke="none" stroke-width="1" fill="none" fill-rule="evenodd" opacity="0.4">
        <g id="se_timezone_neg" transform="translate(-32.000000, -96.000000)">
            <g id="Labels" transform="translate(26.000000, 91.000000)">
                <g id="icn_moon">
                    <path d="M17.2442661,15.0344037 C17.141055,15.0401376 17.043578,15.0401376 16.940367,15.0401376 C15.271789,15.0401376 13.7006881,14.3922018 12.5194954,13.2110092 C11.3383028,12.0298165 10.690367,10.4587156 10.690367,8.79013761 C10.690367,7.83830275 10.9025229,6.92087156 11.2981651,6.08944954 C11.4759174,5.72247706 11.6880734,5.37270642 11.934633,5.04587156 C11.4988532,5.09174312 11.0802752,5.18348624 10.6731651,5.30963303 C7.9896789,6.15825688 6.04587156,8.66399083 6.04587156,11.6284404 C6.04587156,15.2866972 9.0103211,18.2511468 12.668578,18.2511468 C14.6926606,18.2511468 16.4988532,17.3451835 17.7144495,15.9174312 C17.9896789,15.5905963 18.2419725,15.2350917 18.4483945,14.8566514 C18.0584862,14.9541284 17.6571101,15.0172018 17.2442661,15.0344037 L17.2442661,15.0344037 Z" id="icon-moon" fill="#2F2F2F"></path>
                    <rect id="bounds" x="0" y="0" width="24" height="24"></rect>
                </g>
            </g>
        </g>
    </g>
</svg>