<svg xmlns="http://www.w3.org/2000/svg" width="144" height="220" viewBox="0 0 144 220">
    <g fill="none" fill-rule="evenodd">
        <path fill="#F9B233" d="M43.379 53.867l28.808-25.232L46.86 6.452A26.573 26.573 0 0 0 29.473 0h-18.33C5.247 0 .468 4.78.468 10.674L.46 29.503c0 5.035 2.328 9.521 5.962 12.457L35.52 67.396a26.664 26.664 0 0 1 7.859-13.529"/>
        <path fill="#8AB518" d="M88.192 122.808c0 4.127-1.562 7.889-4.126 10.728l17.723-18.849a26.6 26.6 0 0 0 7.76-18.809V73.441c0-2.08-.245-4.102-.696-6.045l-20.658 18.06-.003 37.352"/>
        <path fill="#E8308A" d="M133.231 0h-18.33a26.573 26.573 0 0 0-17.388 6.452L72.187 28.635l28.808 25.232a26.664 26.664 0 0 1 7.858 13.53l29.1-25.437c3.633-2.936 5.961-7.422 5.961-12.457l-.009-18.829C143.905 4.78 139.127 0 133.231 0"/>
        <path fill="#1D71B8" d="M56.179 85.455L35.52 67.396a26.709 26.709 0 0 0-.696 6.045v22.437a26.6 26.6 0 0 0 7.76 18.81l17.724 18.848a15.951 15.951 0 0 1-4.126-10.728l-.003-37.353"/>
        <path fill="#6C2A58" d="M88.195 85.455l20.658-18.059a26.664 26.664 0 0 0-7.858-13.529L72.187 28.635 43.379 53.867a26.664 26.664 0 0 0-7.859 13.53L56.18 85.454l-.003 37.345c0 8.843 7.168 16.012 16.011 16.012S88.2 131.643 88.2 122.8l-.004-37.345M50.707 192.907c-11.607 0-16.72-6.217-16.72-17.479s5.113-17.549 16.72-17.549c11.606 0 16.65 6.356 16.65 17.55 0 11.26-5.044 17.478-16.65 17.478zm4.974-24.733c-1.036-1.865-3.04-1.728-4.974-1.728-1.935 0-4.008-.137-5.043 1.728-1.037 2.003-1.176 5.043-1.176 7.254 0 2.072.07 5.388 1.176 7.254 1.035 1.797 3.177 1.658 5.043 1.658s3.938.139 4.974-1.658c1.106-1.866 1.174-5.182 1.174-7.254 0-2.21-.068-5.32-1.174-7.254zM100.311 192.009c-2.834 0-4.421-.621-4.421-3.731v-17.064c0-1.452.275-4.837-1.866-4.837-2.971 0-5.527 1.59-7.738 3.317v18.584c0 4.145-2.833 3.731-6.01 3.731-2.833 0-4.423-.621-4.423-3.731v-25.7c0-2.557 1.313-3.662 3.8-3.662h3.11c1.242 0 2.21.484 2.9 1.52 2.834-1.658 5.874-2.557 9.19-2.557 6.494 0 11.468 3.04 11.468 9.949v20.45c0 4.145-2.832 3.731-6.01 3.731M138.307 192.009c-1.52 0-3.386-.069-4.076-1.727-3.04 1.658-6.495 2.625-9.949 2.625-6.977 0-10.708-3.661-10.708-10.64 0-9.671 7.116-11.468 15.268-11.468 1.658 0 3.316.069 4.974.207 0-2.28.278-5.527-2.833-5.527-3.385 0-6.908.69-10.224 1.382-.414.07-.898.138-1.313.138-2.901 0-2.901-2.14-2.901-4.283 0-1.935.69-3.108 2.625-3.593 2.97-.76 8.36-1.244 11.468-1.244 3.593 0 8.015.553 10.57 3.316 2.834 3.11 2.764 7.256 2.764 11.193v15.96c0 3.937-2.625 3.661-5.665 3.661zm-4.421-14.233c-.898 0-1.728-.137-2.626-.137-3.04 0-7.945-.277-7.945 3.938 0 1.174.277 4.008 1.935 4.008 3.73 0 5.457-.83 8.636-2.764v-5.045zM31.237 160.95c0-1.49-1.141-2.085-2.48-2.085l-5.31-.006c-1.043.087-1.935.435-2.654 1.644l-4.987 8.505-4.865-8.455c-.745-1.29-1.49-1.688-2.978-1.688-.263 0-5.046-.036-5.046-.036-1.465.059-2.917.444-2.917 2.12 0 .596.248 1.192.546 1.688l9.876 16.922v8.581c0 3.178 1.52 3.869 4.422 3.869h2.626c2.486 0 3.591-1.52 3.591-3.87v-9.055l9.68-16.447c.298-.496.496-1.092.496-1.688M9.45 204.822l-4.214 11.253c-.21.572-.553.706-1.145.706h-.953c-.477 0-.877-.172-.877-.706 0-.19.076-.362.152-.534l1.412-3.166-3.128-7.553a.855.855 0 0 1-.077-.38c0-.44.478-.726.878-.726h.858c.63 0 1.068 0 1.277.668l1.527 4.749 1.41-4.54c.326-1.067 1.164-.877 2.099-.877.457 0 .858.267.858.763 0 .114-.039.248-.076.343M16.22 213.1c-3.204 0-4.615-1.717-4.615-4.825 0-3.11 1.411-4.845 4.616-4.845 3.204 0 4.596 1.755 4.596 4.845 0 3.108-1.392 4.825-4.596 4.825zm1.374-6.828c-.286-.515-.84-.477-1.373-.477-.535 0-1.107-.038-1.393.477-.286.553-.324 1.392-.324 2.003 0 .572.02 1.487.324 2.002.286.496.878.458 1.393.458.514 0 1.087.038 1.373-.458.305-.515.324-1.43.324-2.002 0-.61-.02-1.469-.324-2.003zM30.429 212.852h-.86c-.343 0-.61-.191-.8-.477-.782.458-1.621.725-2.536.725-1.793 0-3.167-.858-3.167-2.766v-5.588c0-1.144.783-1.03 1.66-1.03.782 0 1.22.172 1.22 1.03v4.654c0 .362-.057 1.335.496 1.335.858 0 1.488-.439 2.155-.916v-5.073c0-1.144.782-1.03 1.66-1.03.782 0 1.22.172 1.22 1.03v7.095c0 .706-.362 1.011-1.048 1.011M37.484 200.684c-.42.762-.972 1.506-1.45 2.231-.247.363-.514.534-.952.534-.44 0-1.508-.4-1.508-.915 0-.19.134-.477.23-.649l.991-1.62c.287-.477.496-.688 1.087-.688h.725c.42 0 .992.21.992.706a.754.754 0 0 1-.115.4M44.826 205.948c-1.01 0-1.525.19-2.364.705v5.169c0 .648-.325 1.03-.992 1.03h-.725c-.782 0-1.22-.172-1.22-1.03v-7.095c0-.706.361-1.01 1.049-1.01h.896c.381 0 .706.152.877.495.744-.362 1.488-.782 2.346-.782.534 0 1.068.229 1.068.84v.629c0 .629-.248 1.049-.935 1.049M54.514 209.152h-4.482v.305c0 1.163.458 1.488 1.602 1.488.84 0 1.679-.153 2.499-.325.153-.038.344-.095.496-.095.725 0 .782.744.782 1.297 0 .648-.248.896-.877 1.03-.878.171-2.003.248-2.919.248-3.47 0-4.386-1.488-4.386-4.768 0-3.224.744-4.902 4.29-4.902 3.148 0 4.025 1.487 4.025 4.406 0 .954-.019 1.316-1.03 1.316zm-1.697-2.346c0-.973-.286-1.22-1.278-1.22-1.22 0-1.468.553-1.487 1.677h2.765v-.457zM69.313 212.852c-.782 0-1.22-.172-1.22-1.03v-4.71c0-.401.076-1.336-.516-1.336-.82 0-1.525.439-2.135.916v5.13c0 1.144-.783 1.03-1.66 1.03-.781 0-1.22-.172-1.22-1.03v-7.095c0-.706.362-1.01 1.05-1.01h.857c.343 0 .61.133.8.419a4.935 4.935 0 0 1 2.537-.706c1.793 0 3.166.84 3.166 2.747v5.645c0 1.144-.782 1.03-1.659 1.03M77.838 213.1c-3.204 0-4.616-1.717-4.616-4.825 0-3.11 1.412-4.845 4.616-4.845 3.204 0 4.596 1.755 4.596 4.845 0 3.108-1.392 4.825-4.596 4.825zm1.373-6.828c-.286-.515-.839-.477-1.373-.477s-1.106-.038-1.392.477c-.286.553-.325 1.392-.325 2.003 0 .572.02 1.487.325 2.002.286.496.877.458 1.392.458.515 0 1.087.038 1.373-.458.306-.515.324-1.43.324-2.002 0-.61-.018-1.469-.324-2.003zM89.585 206.1h-1.45v3.834c0 .114-.037.82.192.82.534 0 1.03-.286 1.563-.286.878 0 .744.858.744 1.469 0 .762-.248.991-.991 1.067-.573.057-1.126.096-1.698.096-2.288 0-2.69-.992-2.69-3.109v-3.89c-.99-.02-.99-.668-.99-1.45 0-.572.457-.916.99-.935v-1.354c0-.705.344-1.03 1.05-1.03h.858c.61 0 .973.44.973 1.03v1.354h1.45c.896 0 1.087.382 1.087 1.201 0 .802-.21 1.183-1.088 1.183M103.926 212.852c-.42 0-.934-.02-1.125-.477-.839.458-1.793.725-2.746.725-1.926 0-2.956-1.011-2.956-2.937 0-2.67 1.964-3.166 4.215-3.166.457 0 .915.019 1.373.057 0-.63.076-1.526-.782-1.526-.935 0-1.907.19-2.823.381-.115.02-.248.039-.362.039-.801 0-.801-.591-.801-1.183 0-.534.19-.858.725-.992.82-.21 2.307-.343 3.165-.343.992 0 2.213.153 2.918.915.783.859.763 2.003.763 3.09v4.406c0 1.087-.724 1.011-1.564 1.011zm-1.22-3.929c-.248 0-.477-.038-.724-.038-.84 0-2.194-.076-2.194 1.087 0 .324.076 1.106.534 1.106 1.03 0 1.507-.229 2.384-.763v-1.392zM109.914 212.852h-.686c-.801 0-1.22-.191-1.22-1.068V200.76c0-.725.343-1.03 1.048-1.03h.858c.61 0 .973.439.973 1.03v11.024c0 .648-.286 1.068-.973 1.068M117.829 213.1c-3.205 0-4.616-1.717-4.616-4.825 0-3.11 1.411-4.845 4.616-4.845 3.204 0 4.596 1.755 4.596 4.845 0 3.108-1.392 4.825-4.596 4.825zm1.373-6.828c-.286-.515-.84-.477-1.373-.477-.534 0-1.107-.038-1.393.477-.286.553-.324 1.392-.324 2.003 0 .572.02 1.487.324 2.002.286.496.878.458 1.393.458s1.087.038 1.373-.458c.305-.515.324-1.43.324-2.002 0-.61-.02-1.469-.324-2.003zM131.522 212.852c-.782 0-1.221-.172-1.221-1.03v-4.71c0-.401.076-1.336-.515-1.336-.82 0-1.526.439-2.136.916v5.13c0 1.144-.782 1.03-1.66 1.03-.782 0-1.22-.172-1.22-1.03v-7.095c0-.706.362-1.01 1.049-1.01h.858c.343 0 .61.133.801.419a4.935 4.935 0 0 1 2.537-.706c1.793 0 3.166.84 3.166 2.747v5.645c0 1.144-.782 1.03-1.659 1.03M142.716 209.152h-4.481v.305c0 1.163.457 1.488 1.601 1.488.84 0 1.679-.153 2.499-.325.152-.038.343-.095.496-.095.724 0 .782.744.782 1.297 0 .648-.249.896-.878 1.03-.877.171-2.002.248-2.918.248-3.47 0-4.387-1.488-4.387-4.768 0-3.224.744-4.902 4.292-4.902 3.147 0 4.024 1.487 4.024 4.406 0 .954-.019 1.316-1.03 1.316zm-1.697-2.346c0-.973-.286-1.22-1.278-1.22-1.22 0-1.469.553-1.488 1.677h2.766v-.457z"/>
        <path d="M0 0h144v220H0z"/>
    </g>
</svg>
