<svg xmlns="http://www.w3.org/2000/svg" width="32" height="32" viewBox="0 0 32 32">
    <g fill="none" fill-rule="evenodd">
        <path fill="#6C2A58" d="M16 2.58c-1.75 0-3.406.333-4.969 1a12.87 12.87 0 0 0-4.094 2.75 12.87 12.87 0 0 0-2.75 4.093c-.666 1.563-1 3.22-1 4.97 0 1.75.334 3.405 1 4.968a12.87 12.87 0 0 0 2.75 4.094 12.87 12.87 0 0 0 4.094 2.75c1.563.666 3.219 1 4.969 1 1.75 0 3.406-.334 4.969-1a12.87 12.87 0 0 0 4.093-2.75 12.87 12.87 0 0 0 2.75-4.094c.667-1.563 1-3.219 1-4.969 0-1.75-.333-3.406-1-4.969a12.87 12.87 0 0 0-2.75-4.093 12.87 12.87 0 0 0-4.093-2.75c-1.563-.667-3.219-1-4.969-1zM7.812 23.767c.292-.125.657-.26 1.094-.406a52.7 52.7 0 0 0 1.344-.469c.458-.167.927-.333 1.406-.5.48-.167.927-.312 1.344-.437.458-.125.719-.355.781-.688.063-.333.094-.667.094-1 0-.25-.01-.542-.031-.875a2.586 2.586 0 0 0-.281-1 3.009 3.009 0 0 1-.313-.812 8.433 8.433 0 0 1-.188-1 .304.304 0 0 0-.062-.157 1.024 1.024 0 0 0-.125-.156c-.083-.083-.187-.25-.313-.5-.125-.25-.229-.625-.312-1.125-.083-.375-.125-.625-.125-.75s.02-.229.063-.312c.041-.042.062-.084.062-.125v-.125c.083-.209.104-.625.063-1.25a14.675 14.675 0 0 0-.188-1.625c-.042-.167-.02-.48.063-.938.083-.458.291-.917.624-1.375.167-.167.344-.333.532-.5.187-.167.406-.292.656-.375.208-.125.448-.219.719-.281.27-.063.552-.115.844-.156h1c.333.041.635.093.906.156.27.062.531.156.781.281.208.083.417.208.625.375.208.167.375.333.5.5.375.458.594.917.656 1.375.063.458.094.771.094.938-.083.458-.156 1-.219 1.625-.062.625-.052 1.041.032 1.25 0 .041.01.083.03.125.022.041.032.083.032.125.042.083.073.187.094.312.02.125-.01.375-.094.75-.125.5-.25.875-.375 1.125s-.23.417-.313.5a1.024 1.024 0 0 0-.125.156.304.304 0 0 0-.062.157c0 .333-.052.666-.156 1a3.803 3.803 0 0 1-.344.812c-.083.25-.187.531-.313.844a2.753 2.753 0 0 0-.187 1.031c0 .292.042.604.125.938.083.333.354.583.813.75.375.125.802.26 1.28.406.48.146.949.302 1.407.469a52.7 52.7 0 0 0 1.344.468c.437.146.823.282 1.156.407a11.464 11.464 0 0 1-1.75 1.437c-.625.417-1.27.771-1.938 1.063-.708.291-1.447.52-2.218.687-.771.167-1.552.25-2.344.25-.792 0-1.562-.083-2.313-.25-.75-.167-1.479-.396-2.187-.687a11.733 11.733 0 0 1-1.969-1.032 10.81 10.81 0 0 1-1.719-1.406z"/>
        <path d="M0 0h32v32H0z"/>
    </g>
</svg>
