<svg xmlns="http://www.w3.org/2000/svg" width="32" height="32" viewBox="0 0 32 32">
    <g fill="none" fill-rule="evenodd">
        <path fill="#2F2F2F" d="M17.035 3.07v2.579l.754.251c.252.042.483.105.692.189.21.084.44.168.692.252.21.083.42.178.63.283.21.104.398.22.566.346l.754.44 1.888-1.887 2.264 2.264-1.887 1.95.378.692c.125.21.24.41.346.598.104.189.199.388.283.598.083.251.157.482.22.692.063.21.115.419.157.629l.189.817h2.768v3.272h-2.831l-.189.754c-.084.21-.157.42-.22.63-.063.21-.136.419-.22.629-.084.21-.178.408-.283.597-.105.189-.22.388-.346.598l-.44.692 2.075 2.076-2.264 2.264-2.076-2.076-.755.378c-.168.126-.346.23-.535.314-.189.084-.388.168-.597.252-.21.084-.42.157-.63.22-.21.063-.419.136-.629.22l-.754.189v2.957h-3.272v-2.957l-.754-.189a7.484 7.484 0 0 0-.63-.22 7.484 7.484 0 0 1-.629-.22c-.21-.084-.408-.168-.597-.252a2.751 2.751 0 0 1-.535-.314l-.755-.378-2.076 2.076-2.264-2.264 2.076-2.076-.44-.692c-.127-.21-.242-.41-.347-.598a5.224 5.224 0 0 1-.283-.597 7.484 7.484 0 0 1-.22-.63 7.484 7.484 0 0 0-.22-.629l-.189-.754H3.07v-3.272h2.767l.189-.817c.042-.21.094-.42.157-.63.063-.21.137-.44.22-.691.084-.21.179-.41.284-.598.104-.189.22-.388.345-.598l.378-.692-1.887-1.95 2.264-2.264L9.675 7.41l.754-.44c.168-.126.357-.242.567-.346.21-.105.419-.2.629-.283.251-.084.482-.168.692-.252.21-.084.44-.147.692-.189l.754-.251v-2.58h3.272zm-1.636 17.173c.671 0 1.3-.126 1.887-.378a4.306 4.306 0 0 0 1.51-1.07c.461-.418.818-.922 1.07-1.509a4.74 4.74 0 0 0 .377-1.887c0-.671-.126-1.3-.378-1.887a4.306 4.306 0 0 0-1.07-1.51 4.306 4.306 0 0 0-1.509-1.07 4.74 4.74 0 0 0-1.887-.377c-.671 0-1.3.126-1.887.378a4.306 4.306 0 0 0-1.51 1.07c-.461.418-.818.922-1.07 1.509a4.74 4.74 0 0 0-.377 1.887c0 .671.126 1.3.378 1.887.251.587.608 1.09 1.07 1.51.418.461.922.818 1.509 1.07a4.74 4.74 0 0 0 1.887.377zM18.104 2h-5.41v2.83c-.252.085-.503.169-.755.252-.251.084-.482.168-.692.252-.251.126-.493.241-.723.346-.23.105-.451.22-.66.346L7.786 4.013 4.013 7.787l2.076 2.076-.346.692c-.105.21-.2.44-.283.692-.126.252-.22.493-.283.724-.063.23-.137.471-.22.723H2v5.41h3.082c.042.21.105.43.19.66.083.231.188.472.314.724.084.21.178.43.283.66.105.231.22.43.346.598l-2.202 2.265 3.774 3.774 2.265-2.265c.21.126.42.242.63.346.209.105.44.2.691.283.21.084.43.168.66.252.231.084.451.147.661.189v3.208h5.41V25.59c.21-.042.43-.105.66-.189.231-.084.451-.168.661-.252.252-.083.482-.178.692-.283.21-.104.42-.22.629-.346l2.265 2.265 3.774-3.774-2.202-2.265c.126-.168.241-.367.346-.598.105-.23.2-.45.283-.66.126-.252.231-.493.315-.724.084-.23.147-.45.189-.66h3.082v-5.41h-2.957a13.652 13.652 0 0 1-.22-.723 3.952 3.952 0 0 0-.283-.724 5.282 5.282 0 0 0-.283-.692l-.346-.692 2.076-2.076-3.774-3.774-2.076 2.013a6.552 6.552 0 0 0-.66-.346c-.231-.105-.473-.22-.724-.346-.21-.084-.44-.168-.692-.252l-.755-.251V2zm-2.705 17.173c-.503 0-.986-.104-1.447-.314a4.03 4.03 0 0 1-1.195-.818 4.03 4.03 0 0 1-.818-1.195 3.458 3.458 0 0 1-.314-1.447c0-.503.104-.986.314-1.447.21-.461.482-.86.818-1.195a4.03 4.03 0 0 1 1.195-.818c.461-.21.944-.314 1.447-.314.503 0 .986.104 1.447.314.461.21.86.482 1.195.818.336.335.608.734.818 1.195.21.461.314.944.314 1.447 0 .503-.104.986-.314 1.447a4.03 4.03 0 0 1-.818 1.195 4.03 4.03 0 0 1-1.195.818c-.461.21-.944.314-1.447.314z" opacity=".4"/>
        <path d="M0 0h32v32H0z"/>
    </g>
</svg>
