<svg xmlns="http://www.w3.org/2000/svg" width="32" height="32" viewBox="0 0 32 32">
    <g fill="none" fill-rule="evenodd">
        <path fill="#6C2A58" d="M1.844 21.392v2.125c0 .125.052.292.156.5.104.208.323.313.656.313h7.563v1.062c0 .208.073.427.219.656.145.23.427.344.843.344h17.875c.375 0 .636-.114.782-.344.145-.229.218-.448.218-.656v-2.625c0-.25-.062-.52-.187-.812-.125-.292-.396-.521-.813-.688-.25-.125-.604-.27-1.062-.437a33.61 33.61 0 0 1-1.438-.563 35.703 35.703 0 0 1-1.593-.531c-.521-.188-1.01-.344-1.47-.469-.04 0-.072-.031-.093-.094-.02-.062-.031-.24-.031-.53 0-.334.02-.615.062-.845a9.48 9.48 0 0 1 .125-.593 5.9 5.9 0 0 0 .563-1.938c.166-.125.323-.344.468-.656.146-.313.282-.76.407-1.344.083-.458.114-.802.093-1.031a1.655 1.655 0 0 0-.156-.594v-.124c-.041-.126-.041-.428 0-.907.042-.48.104-.969.188-1.469.041-.292.01-.74-.094-1.344-.104-.604-.385-1.177-.844-1.718a2.614 2.614 0 0 0-.5-.594 2.699 2.699 0 0 0-.75-.469 5.553 5.553 0 0 0-1-.437 3.936 3.936 0 0 0-1.25-.188H19.72c-.5 0-.938.063-1.313.188s-.708.27-1 .437a2.262 2.262 0 0 0-.718.469 7.198 7.198 0 0 0-.532.594 4.2 4.2 0 0 0-.812 1.718c-.125.605-.146 1.052-.063 1.344.084.5.136.99.156 1.469.021.48.032.781.032.906l-.031.031c-.021.021-.032.052-.032.094a9.48 9.48 0 0 0-.125.594c-.041.23 0 .573.125 1.031.084.583.209 1.031.375 1.344.167.312.313.531.438.656a5.9 5.9 0 0 0 .563 1.938c.083.208.166.437.25.687.083.25.124.5.124.75 0 .292-.01.458-.031.5a.49.49 0 0 1-.094.125 4.94 4.94 0 0 0-.593.156c-.188.063-.386.136-.594.22-.25-.084-.521-.178-.813-.282a40.614 40.614 0 0 0-.812-.281 8.475 8.475 0 0 0-1.563-.5c-.083-.042-.125-.084-.125-.125v-.438c0-.25.01-.469.031-.656a1.04 1.04 0 0 1 .157-.469c.083-.208.166-.448.25-.719.083-.27.146-.552.187-.843a5.56 5.56 0 0 0 .313-.563c.125-.25.25-.604.375-1.062.041-.375.052-.657.031-.844a4.021 4.021 0 0 0-.094-.531v-.062c-.041-.084-.041-.324 0-.72l.125-1.156c.042-.25.021-.625-.062-1.125-.084-.5-.313-.979-.688-1.437a2.152 2.152 0 0 0-.375-.407 2.947 2.947 0 0 0-.625-.406 3.968 3.968 0 0 0-.781-.344 3.245 3.245 0 0 0-1.031-.156h-.875c-.375 0-.719.052-1.031.156a3.968 3.968 0 0 0-.782.344c-.25.125-.458.26-.625.406a2.152 2.152 0 0 0-.375.407c-.375.458-.604.937-.687 1.437-.084.5-.104.875-.063 1.125.042.375.084.76.125 1.156.042.396.042.636 0 .72v.062a1.565 1.565 0 0 0-.156.53c-.02.188.01.47.094.845.125.458.25.812.375 1.062s.229.438.312.563c.042.291.104.573.188.843.083.271.166.51.25.72.083.166.156.343.218.53.063.188.094.386.094.594v.438c0 .041-.041.062-.125.062-.333.125-.708.25-1.125.375-.416.125-.833.271-1.25.438-.416.125-.812.26-1.187.406-.375.146-.667.26-.875.344-.334.125-.584.312-.75.562-.167.25-.25.5-.25.75z"/>
        <path d="M0 0h32v32H0z"/>
    </g>
</svg>
