<svg xmlns="http://www.w3.org/2000/svg" width="32" height="32" viewBox="0 0 32 32">
    <g fill="none" fill-rule="evenodd">
        <path fill="#2F2F2F" d="M1.844 21.392v2.125c0 .125.052.292.156.5.104.208.323.313.656.313h7.563v1.062c0 .208.073.427.219.656.145.23.427.344.843.344h17.875c.375 0 .636-.114.782-.344.145-.229.218-.448.218-.656v-2.625c0-.25-.062-.52-.187-.812-.125-.292-.396-.521-.813-.688-.25-.125-.604-.27-1.062-.437a33.61 33.61 0 0 1-1.438-.563 35.703 35.703 0 0 1-1.593-.531c-.521-.188-1.01-.344-1.47-.469-.04 0-.072-.031-.093-.094-.02-.062-.031-.24-.031-.53 0-.334.02-.615.062-.845a9.48 9.48 0 0 1 .125-.593 5.9 5.9 0 0 0 .563-1.938c.166-.125.323-.344.468-.656.146-.313.282-.76.407-1.344.083-.458.114-.802.093-1.031a1.655 1.655 0 0 0-.156-.594v-.124c-.041-.126-.041-.428 0-.907.042-.48.104-.969.188-1.469.041-.292.01-.74-.094-1.344-.104-.604-.385-1.177-.844-1.718a2.614 2.614 0 0 0-.5-.594 2.699 2.699 0 0 0-.75-.469 5.553 5.553 0 0 0-1-.437 3.936 3.936 0 0 0-1.25-.188H19.72c-.5 0-.938.063-1.313.188s-.708.27-1 .437a2.262 2.262 0 0 0-.718.469 7.198 7.198 0 0 0-.532.594 4.2 4.2 0 0 0-.812 1.718c-.125.605-.146 1.052-.063 1.344.084.5.136.99.156 1.469.021.48.032.781.032.906l-.031.031c-.021.021-.032.052-.032.094a9.48 9.48 0 0 0-.125.594c-.041.23 0 .573.125 1.031.084.583.209 1.031.375 1.344.167.312.313.531.438.656a5.9 5.9 0 0 0 .563 1.938c.083.208.166.437.25.687.083.25.124.5.124.75 0 .292-.01.458-.031.5a.49.49 0 0 1-.094.125 4.94 4.94 0 0 0-.593.156c-.188.063-.386.136-.594.22-.25-.084-.521-.178-.813-.282a40.614 40.614 0 0 0-.812-.281 8.475 8.475 0 0 0-1.563-.5c-.083-.042-.125-.084-.125-.125v-.438c0-.25.01-.469.031-.656a1.04 1.04 0 0 1 .157-.469c.083-.208.166-.448.25-.719.083-.27.146-.552.187-.843a5.56 5.56 0 0 0 .313-.563c.125-.25.25-.604.375-1.062.041-.375.052-.657.031-.844a4.021 4.021 0 0 0-.094-.531v-.062c-.041-.084-.041-.324 0-.72l.125-1.156c.042-.25.021-.625-.062-1.125-.084-.5-.313-.979-.688-1.437a2.152 2.152 0 0 0-.375-.407 2.947 2.947 0 0 0-.625-.406 3.968 3.968 0 0 0-.781-.344 3.245 3.245 0 0 0-1.031-.156h-.875c-.375 0-.719.052-1.031.156a3.968 3.968 0 0 0-.782.344c-.25.125-.458.26-.625.406a2.152 2.152 0 0 0-.375.407c-.375.458-.604.937-.687 1.437-.084.5-.104.875-.063 1.125.042.375.084.76.125 1.156.042.396.042.636 0 .72v.062a1.565 1.565 0 0 0-.156.53c-.02.188.01.47.094.845.125.458.25.812.375 1.062s.229.438.312.563c.042.291.104.573.188.843.083.271.166.51.25.72.083.166.156.343.218.53.063.188.094.386.094.594v.438c0 .041-.041.062-.125.062-.333.125-.708.25-1.125.375-.416.125-.833.271-1.25.438-.416.125-.812.26-1.187.406-.375.146-.667.26-.875.344-.334.125-.584.312-.75.562-.167.25-.25.5-.25.75zm9.437 1.375c0-.042.042-.135.125-.281.084-.146.23-.26.438-.344.291-.125.656-.27 1.094-.437.437-.167.927-.334 1.468-.5.5-.167 1.01-.334 1.531-.5.521-.167.97-.313 1.344-.438.459-.125.73-.364.813-.719a4.06 4.06 0 0 0 .125-.906c0-.375-.052-.719-.157-1.031a6.45 6.45 0 0 0-.343-.844 7.866 7.866 0 0 1-.25-.75 6.559 6.559 0 0 1-.188-.875l-.062-.312-.188-.25c-.083-.042-.177-.177-.281-.407-.104-.229-.219-.593-.344-1.093-.083-.375-.114-.625-.093-.75.02-.125.052-.23.093-.313v-.062l.032-.063.03-.062v-.063c.042-.25.042-.677 0-1.281a12.283 12.283 0 0 0-.187-1.531c-.041-.167-.02-.48.063-.938.083-.458.291-.896.625-1.312.166-.209.343-.386.531-.532.188-.145.406-.26.656-.343.209-.125.448-.22.719-.282.27-.062.573-.114.906-.156h.938a6.12 6.12 0 0 1 1 .188 4.7 4.7 0 0 1 .812.312c.209.125.386.26.532.406l.406.407c.333.416.541.854.625 1.312.083.458.104.771.062.938-.083.416-.146.927-.187 1.53-.042.605-.042 1.011 0 1.22v.062c.041.042.062.083.062.125 0 .042.021.083.063.125 0 .083.01.188.031.313.02.125-.01.375-.094.75-.083.5-.187.864-.312 1.093-.125.23-.209.365-.25.407l-.25.25v.312a4.483 4.483 0 0 1-.219.875 21.79 21.79 0 0 1-.281.75c-.084.25-.156.521-.219.813a5.155 5.155 0 0 0-.094 1.062c0 .292.042.604.125.938.084.333.334.562.75.687.417.125.896.281 1.438.469.541.187 1.062.364 1.562.531.5.167.969.333 1.407.5.437.167.78.313 1.03.438.167.083.272.166.313.25a.696.696 0 0 1 .063.312v2.625H11.28v-2.625zm-8.375-1.375c0-.042.021-.094.063-.156.041-.063.125-.115.25-.156.25-.125.552-.25.906-.375s.74-.271 1.156-.438c.417-.125.823-.25 1.219-.375.396-.125.76-.25 1.094-.375.458-.125.718-.354.781-.687a4.61 4.61 0 0 0 .094-.813c0-.292-.042-.573-.125-.844a5.092 5.092 0 0 0-.313-.78 22.378 22.378 0 0 0-.187-.532 1.92 1.92 0 0 1-.125-.656l-.063-.313-.187-.25a1.446 1.446 0 0 1-.188-.312c-.083-.167-.166-.438-.25-.813a5.349 5.349 0 0 1-.062-.562v-.25h.062v-.188h.063c.041-.25.041-.635 0-1.156-.042-.52-.104-.906-.188-1.156 0-.125.031-.355.094-.688.063-.333.219-.667.469-1 .083-.167.198-.302.343-.406a3.49 3.49 0 0 1 .47-.281c.208-.084.405-.146.593-.188.188-.042.406-.083.656-.125h.75c.584.042 1.031.167 1.344.375.313.208.552.417.719.625.25.333.406.667.469 1 .062.333.093.563.093.688-.083.291-.146.687-.187 1.187-.042.5-.042.875 0 1.125.041.042.062.083.062.125 0 .042.021.083.063.125v.188c0 .083-.021.27-.063.562-.083.375-.166.646-.25.813-.083.166-.146.27-.187.312l-.188.25-.062.313c0 .208-.042.427-.125.656-.084.23-.167.427-.25.594a3.315 3.315 0 0 0-.188.687c-.041.25-.062.542-.062.875 0 .25.031.531.094.844.062.312.322.552.78.719a4.8 4.8 0 0 1 .876.25c.333.125.666.229 1 .312-.542.208-1.063.406-1.563.594-.5.187-.896.344-1.187.469-.417.166-.73.406-.938.718-.208.313-.312.594-.312.844v.5H2.906v-1.875z" opacity=".4"/>
        <path d="M0 0h32v32H0z"/>
    </g>
</svg>
