<svg xmlns="http://www.w3.org/2000/svg" width="32" height="32" viewBox="0 0 32 32">
    <g fill="none" fill-rule="evenodd">
        <path fill="#6C2A58" d="M17.875 3v2.563l.75.25c.25.041.48.104.688.187.208.083.437.167.687.25.208.083.417.177.625.281.208.104.396.219.563.344l.75.438 1.875-1.875 2.25 2.25-1.875 1.937.375.688c.125.208.24.406.343.593.104.188.198.386.282.594.083.25.156.48.218.688.063.208.115.416.157.624l.187.813h2.75v3.25h-2.813l-.187.75a7.436 7.436 0 0 0-.219.625 7.436 7.436 0 0 1-.218.625 5.19 5.19 0 0 1-.282.594 20.65 20.65 0 0 1-.343.593L24 20.75l2.063 2.063-2.25 2.25L21.75 23l-.75.375c-.167.125-.344.23-.531.313-.188.083-.386.166-.594.25a7.436 7.436 0 0 1-.625.218 7.436 7.436 0 0 0-.625.219l-.75.188V27.5h-3.25v-2.938l-.75-.187a7.436 7.436 0 0 0-.625-.219 7.436 7.436 0 0 1-.625-.218 17.105 17.105 0 0 1-.594-.25 2.733 2.733 0 0 1-.531-.313L10.75 23l-2.063 2.063-2.25-2.25L8.5 20.75l-.438-.688a20.65 20.65 0 0 1-.343-.593 5.19 5.19 0 0 1-.282-.594 7.436 7.436 0 0 1-.218-.625A7.436 7.436 0 0 0 7 17.625l-.188-.75H4v-3.25h2.75l.188-.813c.041-.208.093-.416.156-.624.062-.209.135-.438.218-.688a5.19 5.19 0 0 1 .282-.594c.104-.187.218-.385.343-.594l.375-.687-1.874-1.938 2.25-2.25 1.874 1.875.75-.437c.167-.125.355-.24.563-.344.208-.104.417-.198.625-.281.25-.083.48-.167.688-.25.208-.083.437-.146.687-.188l.75-.25V3h3.25zM16.25 20.063a4.71 4.71 0 0 0 1.875-.375 4.279 4.279 0 0 0 1.5-1.063 4.279 4.279 0 0 0 1.063-1.5 4.71 4.71 0 0 0 .375-1.875 4.71 4.71 0 0 0-.375-1.875 4.279 4.279 0 0 0-1.063-1.5 4.279 4.279 0 0 0-1.5-1.063 4.71 4.71 0 0 0-1.875-.374 4.71 4.71 0 0 0-1.875.374 4.279 4.279 0 0 0-1.5 1.063 4.279 4.279 0 0 0-1.063 1.5 4.71 4.71 0 0 0-.374 1.875c0 .667.124 1.292.374 1.875s.605 1.083 1.063 1.5c.417.458.917.812 1.5 1.063a4.71 4.71 0 0 0 1.875.375zm0-1.063c-.5 0-.98-.104-1.438-.313a4.003 4.003 0 0 1-1.187-.812 4.003 4.003 0 0 1-.813-1.188 3.436 3.436 0 0 1-.312-1.437c0-.5.104-.98.313-1.438.208-.458.479-.854.812-1.187.333-.333.73-.604 1.188-.813a3.436 3.436 0 0 1 1.437-.312c.5 0 .98.104 1.438.313.458.208.854.479 1.187.812.333.333.604.73.813 1.188.208.458.312.937.312 1.437s-.104.98-.313 1.438c-.208.458-.479.854-.812 1.187-.333.333-.73.604-1.188.813A3.436 3.436 0 0 1 16.25 19z"/>
        <path d="M0 0h32v32H0z"/>
    </g>
</svg>
