<svg xmlns="http://www.w3.org/2000/svg" width="32" height="32" viewBox="0 0 32 32">
    <g fill="none" fill-rule="evenodd">
        <path fill="#6C2A58" d="M16.063 11.063c-.584 0-1.136.114-1.657.343-.52.23-.968.531-1.344.906-.416.376-.729.823-.937 1.344a4.418 4.418 0 0 0-.313 1.656c0 .584.105 1.136.313 1.657.208.52.52.99.938 1.406.375.375.822.677 1.343.906.521.23 1.073.344 1.656.344.584 0 1.136-.115 1.657-.344.52-.229.968-.531 1.343-.906.376-.417.678-.885.907-1.406.229-.521.343-1.073.343-1.657 0-.583-.114-1.135-.343-1.656a4.362 4.362 0 0 0-.907-1.344 4.362 4.362 0 0 0-1.343-.906 4.067 4.067 0 0 0-1.657-.344zm0 7.5c-.459 0-.875-.094-1.25-.282a4.883 4.883 0 0 1-1-.656 3.195 3.195 0 0 1-.688-1.031 3.268 3.268 0 0 1-.25-1.282c0-.416.083-.822.25-1.218.167-.396.396-.74.688-1.031.291-.292.624-.521 1-.688.375-.167.791-.25 1.25-.25.416 0 .822.083 1.218.25.396.167.74.396 1.032.688.291.291.52.635.687 1.03a3.268 3.268 0 0 1 0 2.5c-.167.397-.396.74-.688 1.032a4.6 4.6 0 0 1-1.03.656 2.818 2.818 0 0 1-1.22.282zm0-11.75A8.512 8.512 0 0 0 10 9.313 8.724 8.724 0 0 0 8.187 12a8.134 8.134 0 0 0-.687 3.313c0 1.208.23 2.322.688 3.343A9.693 9.693 0 0 0 10 21.375a9.558 9.558 0 0 0 2.75 1.813 8.134 8.134 0 0 0 3.313.687c1.166 0 2.27-.23 3.312-.688a8.724 8.724 0 0 0 2.688-1.812 8.608 8.608 0 0 0 1.843-2.719c.438-1.02.657-2.135.657-3.343 0-1.167-.22-2.271-.657-3.313a7.832 7.832 0 0 0-1.843-2.688 7.832 7.832 0 0 0-2.688-1.843 8.467 8.467 0 0 0-3.313-.657zm0 16a7.11 7.11 0 0 1-2.907-.594 8.493 8.493 0 0 1-2.406-1.594 7.554 7.554 0 0 1-1.594-2.375 7.33 7.33 0 0 1-.594-2.938c0-1 .198-1.958.594-2.874a7.554 7.554 0 0 1 1.594-2.376 8.493 8.493 0 0 1 2.406-1.593 7.11 7.11 0 0 1 2.906-.594 7.11 7.11 0 0 1 2.907.594 7.655 7.655 0 0 1 2.343 1.594 6.71 6.71 0 0 1 1.625 2.374c.376.917.563 1.875.563 2.876 0 1.041-.187 2.02-.563 2.937a6.71 6.71 0 0 1-1.625 2.375 7.655 7.655 0 0 1-2.343 1.594 7.11 7.11 0 0 1-2.907.593zm12.75-7.5c0-1.75-.334-3.407-1-4.97-.667-1.562-1.584-2.905-2.75-4.03a12.87 12.87 0 0 0-4.094-2.75c-1.563-.667-3.219-1-4.969-1-1.75 0-3.406.333-4.969 1a12.87 12.87 0 0 0-4.094 2.75c-1.166 1.125-2.083 2.468-2.75 4.03-.666 1.563-1 3.22-1 4.97 0 1 .105 1.958.313 2.874.208.917.52 1.771.938 2.563.375.833.843 1.615 1.406 2.344.562.729 1.177 1.385 1.843 1.968L5.5 27.813l.813.625L8.5 25.75A13.818 13.818 0 0 0 12 27.5c.625.208 1.27.365 1.938.469.666.104 1.354.156 2.062.156.708 0 1.396-.052 2.063-.156.666-.104 1.312-.26 1.937-.469a12.339 12.339 0 0 0 1.781-.75 15.21 15.21 0 0 0 1.657-1l2.187 2.688.813-.625-2.125-2.75a14.782 14.782 0 0 0 1.843-1.938 10.887 10.887 0 0 0 1.407-2.313c.416-.833.729-1.708.937-2.625.208-.916.313-1.874.313-2.875z"/>
        <path d="M0 0h32v32H0z"/>
    </g>
</svg>
