<svg xmlns="http://www.w3.org/2000/svg" width="32" height="32" viewBox="0 0 32 32">
    <g fill="none" fill-rule="evenodd">
        <path fill="#2F2F2F" d="M16.002 2.58c-1.75 0-3.406.333-4.968 1A12.87 12.87 0 0 0 6.94 6.33a12.87 12.87 0 0 0-2.75 4.094c-.667 1.562-1 3.218-1 4.968s.333 3.407 1 4.97a12.87 12.87 0 0 0 2.75 4.093 12.87 12.87 0 0 0 4.094 2.75c1.562.667 3.218 1 4.968 1s3.407-.333 4.97-1a12.87 12.87 0 0 0 4.093-2.75 12.87 12.87 0 0 0 2.75-4.094c.667-1.562 1-3.219 1-4.969 0-1.75-.333-3.406-1-4.968a12.87 12.87 0 0 0-2.75-4.094 12.87 12.87 0 0 0-4.094-2.75c-1.562-.667-3.218-1-4.969-1zm0 1.062c1.626 0 3.146.313 4.563.938a12.836 12.836 0 0 1 3.75 2.5 12.836 12.836 0 0 1 2.5 3.75c.625 1.417.937 2.937.937 4.562 0 .709-.062 1.407-.187 2.094a10.198 10.198 0 0 1-.563 1.969 8.922 8.922 0 0 1-.843 1.812c-.354.584-.74 1.125-1.157 1.625-.291-.125-.666-.27-1.125-.437a87.547 87.547 0 0 1-1.5-.563c-.5-.166-1.02-.333-1.562-.5-.542-.166-1.02-.312-1.438-.437-.083-.042-.135-.094-.156-.156-.02-.063-.031-.24-.031-.532 0-.25.042-.5.125-.75.083-.25.187-.479.312-.687.084-.208.188-.5.313-.875s.208-.73.25-1.063c.125-.166.27-.406.437-.718.167-.313.292-.74.375-1.282.125-.5.178-.864.157-1.093a2.324 2.324 0 0 0-.157-.657l-.03-.03-.032-.032c0-.125.01-.438.031-.938.021-.5.073-1 .156-1.5.084-.291.063-.74-.062-1.343-.125-.604-.396-1.198-.813-1.782l-.562-.562a2.364 2.364 0 0 0-.75-.5 5.553 5.553 0 0 0-1-.438 5.653 5.653 0 0 0-1.313-.25h-1.062c-.5.042-.937.125-1.313.25-.375.125-.708.271-1 .438a2.364 2.364 0 0 0-.75.5 5.422 5.422 0 0 0-.5.562c-.458.584-.74 1.178-.843 1.782-.104.604-.136 1.052-.094 1.343.083.5.146 1 .187 1.5.042.5.042.813 0 .938v.031c0 .021-.02.031-.062.031a6.217 6.217 0 0 0-.094.657c-.02.229.01.593.094 1.093.125.542.26.97.406 1.282.146.312.281.552.406.718.042.334.125.688.25 1.063s.23.667.313.875c.083.167.146.375.187.625.042.25.063.52.063.812 0 .334-.01.521-.031.563a.49.49 0 0 1-.094.125c-.458.125-.958.281-1.5.469-.542.187-1.083.364-1.625.531-.5.208-.98.396-1.438.562-.458.167-.812.313-1.062.438a9.024 9.024 0 0 1-1.188-1.625 12.903 12.903 0 0 1-.875-1.875 10.198 10.198 0 0 1-.562-1.969 11.68 11.68 0 0 1-.188-2.094c0-1.625.313-3.145.938-4.562a12.836 12.836 0 0 1 2.5-3.75 12.836 12.836 0 0 1 3.75-2.5c1.417-.625 2.937-.938 4.562-.938zM7.815 23.767c.292-.125.656-.26 1.094-.406a52.7 52.7 0 0 0 1.343-.469c.459-.166.928-.333 1.407-.5.479-.166.927-.312 1.343-.437.459-.125.72-.354.782-.688.062-.333.093-.666.093-1 0-.25-.01-.541-.03-.875a2.586 2.586 0 0 0-.282-1 3.009 3.009 0 0 1-.313-.812 8.433 8.433 0 0 1-.187-1 .304.304 0 0 0-.063-.156 1.024 1.024 0 0 0-.125-.157c-.083-.083-.187-.25-.312-.5s-.23-.625-.313-1.125c-.083-.375-.125-.625-.125-.75s.021-.229.063-.312c.042-.042.062-.083.062-.125v-.125c.084-.208.105-.625.063-1.25a14.675 14.675 0 0 0-.188-1.625c-.041-.167-.02-.48.063-.938.083-.458.292-.916.625-1.375.167-.166.344-.333.531-.5.188-.166.406-.291.656-.375.209-.125.448-.218.72-.28.27-.063.551-.115.843-.157h1c.333.042.635.094.906.156.271.063.531.156.781.281.209.084.417.209.625.375.209.167.375.334.5.5.376.459.594.917.657 1.375.062.459.093.771.093.938-.083.458-.156 1-.218 1.625-.063.625-.052 1.042.031 1.25 0 .042.01.083.031.125.021.042.031.083.031.125.042.083.073.187.094.312.021.125-.01.375-.094.75-.125.5-.25.875-.375 1.125s-.229.417-.312.5a1.024 1.024 0 0 0-.125.157.304.304 0 0 0-.063.156c0 .333-.052.667-.156 1a3.803 3.803 0 0 1-.344.812c-.083.25-.187.532-.312.844a2.753 2.753 0 0 0-.188 1.031c0 .292.042.605.125.938.084.333.355.583.813.75.375.125.802.26 1.281.406.48.146.948.302 1.406.469a52.7 52.7 0 0 0 1.344.469c.438.146.823.281 1.156.406a11.464 11.464 0 0 1-1.75 1.437c-.625.417-1.27.771-1.937 1.063-.708.292-1.448.52-2.219.687-.77.167-1.552.25-2.344.25-.791 0-1.562-.083-2.312-.25-.75-.166-1.48-.395-2.188-.687a11.733 11.733 0 0 1-1.968-1.031 10.81 10.81 0 0 1-1.719-1.407z" opacity=".4"/>
        <path d="M0 0h32v32H0z"/>
    </g>
</svg>
