<svg xmlns="http://www.w3.org/2000/svg" width="32" height="32" viewBox="0 0 32 32">
    <g fill="none" fill-rule="evenodd">
        <path fill="#2F2F2F" d="M16.063 10.955c-.584 0-1.136.114-1.657.343-.52.23-.968.532-1.344.907-.416.375-.729.823-.937 1.343a4.418 4.418 0 0 0-.313 1.657c0 .583.105 1.135.313 1.656.208.52.52.99.938 1.406.375.375.822.677 1.343.906.521.23 1.073.344 1.656.344.584 0 1.136-.114 1.657-.344.52-.229.968-.53 1.343-.906.376-.417.678-.885.907-1.406.229-.52.343-1.073.343-1.656 0-.584-.114-1.136-.343-1.657a4.362 4.362 0 0 0-.907-1.343 4.362 4.362 0 0 0-1.343-.907 4.067 4.067 0 0 0-1.657-.343zm0 7.5c-.459 0-.875-.094-1.25-.282a4.883 4.883 0 0 1-1-.656 3.195 3.195 0 0 1-.688-1.031 3.268 3.268 0 0 1-.25-1.281c0-.417.083-.823.25-1.22.167-.395.396-.739.688-1.03.291-.292.624-.521 1-.688.375-.167.791-.25 1.25-.25.416 0 .822.083 1.218.25.396.167.74.396 1.032.688.291.291.52.635.687 1.03a3.268 3.268 0 0 1 0 2.5c-.167.397-.396.74-.688 1.032a4.6 4.6 0 0 1-1.03.656 2.818 2.818 0 0 1-1.22.282zm0-11.75A8.512 8.512 0 0 0 10 9.205a8.724 8.724 0 0 0-1.813 2.687 8.134 8.134 0 0 0-.687 3.313c0 1.208.23 2.323.688 3.343A9.693 9.693 0 0 0 10 21.268a9.558 9.558 0 0 0 2.75 1.812 8.134 8.134 0 0 0 3.313.687c1.166 0 2.27-.229 3.312-.687a8.724 8.724 0 0 0 2.688-1.813 8.608 8.608 0 0 0 1.843-2.719c.438-1.02.657-2.135.657-3.343 0-1.167-.22-2.271-.657-3.313a7.832 7.832 0 0 0-1.843-2.687 7.832 7.832 0 0 0-2.688-1.844 8.467 8.467 0 0 0-3.313-.656zm0 16a7.11 7.11 0 0 1-2.907-.594 8.493 8.493 0 0 1-2.406-1.594 7.554 7.554 0 0 1-1.594-2.375 7.33 7.33 0 0 1-.594-2.937c0-1 .198-1.959.594-2.875a7.554 7.554 0 0 1 1.594-2.375 8.493 8.493 0 0 1 2.406-1.594 7.11 7.11 0 0 1 2.906-.594 7.11 7.11 0 0 1 2.907.594 7.655 7.655 0 0 1 2.343 1.594 6.71 6.71 0 0 1 1.625 2.375c.376.916.563 1.875.563 2.875 0 1.041-.187 2.02-.563 2.937a6.71 6.71 0 0 1-1.625 2.375 7.655 7.655 0 0 1-2.343 1.594 7.11 7.11 0 0 1-2.907.594zm12.75-7.5c0-1.75-.334-3.407-1-4.97-.667-1.562-1.584-2.905-2.75-4.03a12.87 12.87 0 0 0-4.094-2.75c-1.563-.667-3.219-1-4.969-1-1.75 0-3.406.333-4.969 1a12.87 12.87 0 0 0-4.094 2.75c-1.166 1.125-2.083 2.468-2.75 4.03-.666 1.563-1 3.22-1 4.97 0 1 .105 1.958.313 2.875.208.916.52 1.77.938 2.562.375.833.843 1.615 1.406 2.344.562.73 1.177 1.385 1.843 1.969L5.5 27.705l.813.625L8.5 25.642a13.818 13.818 0 0 0 3.5 1.75c.625.208 1.27.365 1.938.469.666.104 1.354.156 2.062.156.708 0 1.396-.052 2.063-.156.666-.104 1.312-.26 1.937-.469a12.339 12.339 0 0 0 1.781-.75 15.21 15.21 0 0 0 1.657-1l2.187 2.688.813-.625-2.125-2.75a14.782 14.782 0 0 0 1.843-1.938 10.887 10.887 0 0 0 1.407-2.312c.416-.834.729-1.709.937-2.625.208-.917.313-1.875.313-2.875zm-24.563 0c0-1.584.312-3.094.938-4.532.625-1.437 1.458-2.677 2.5-3.718a11.8 11.8 0 0 1 3.75-2.532c1.416-.604 2.937-.906 4.562-.906 1.625 0 3.146.302 4.563.906a11.8 11.8 0 0 1 3.75 2.532c1.041 1.041 1.874 2.28 2.5 3.718.625 1.438.937 2.948.937 4.532 0 1.625-.312 3.145-.938 4.562a12.836 12.836 0 0 1-2.5 3.75 12.836 12.836 0 0 1-3.75 2.5c-1.416.625-2.937.938-4.562.938-1.625 0-3.146-.313-4.563-.938a12.836 12.836 0 0 1-3.75-2.5 12.836 12.836 0 0 1-2.5-3.75c-.625-1.417-.937-2.937-.937-4.562z" opacity=".4"/>
        <path d="M0 0h32v32H0z"/>
    </g>
</svg>
