<svg xmlns="http://www.w3.org/2000/svg" width="24" height="24" viewBox="0 0 24 24">
    <g fill="none" fill-rule="evenodd">
        <path fill="#FFF" d="M18.46 15.605V9.553a6.426 6.426 0 0 0-1.502-4.152 6.14 6.14 0 0 0-1.679-1.391 6.923 6.923 0 0 0-2.076-.773V2.75a.723.723 0 0 0-.22-.53.723.723 0 0 0-.53-.221h-.796a.723.723 0 0 0-.53.22.723.723 0 0 0-.22.53v.487a6.595 6.595 0 0 0-2.076.795 6.968 6.968 0 0 0-1.679 1.37A6.426 6.426 0 0 0 6.048 7.3a6.363 6.363 0 0 0-.398 2.253v6.052L3 17.725v1.237h18.11v-1.237l-2.65-2.12zm-6.405 6.007c.265 0 .508-.052.729-.155.22-.103.42-.243.596-.42.177-.176.317-.375.42-.596.103-.22.154-.464.154-.729h-3.798c0 .265.051.508.154.73.103.22.243.419.42.596.177.176.375.316.596.42.221.102.464.154.729.154z"/>
        <path d="M0 0h24v24H0z"/>
    </g>
</svg>
