<svg xmlns="http://www.w3.org/2000/svg" xmlns:xlink="http://www.w3.org/1999/xlink" width="256" height="256" viewBox="0 0 256 256">
    <defs>
        <circle id="a" cx="128" cy="128" r="128"/>
        <mask id="b" width="256" height="256" x="0" y="0" fill="#fff">
            <use xlink:href="#a"/>
        </mask>
        <mask id="c" width="256" height="256" x="0" y="0" fill="#fff">
            <use xlink:href="#a"/>
        </mask>
    </defs>
    <g fill="none" fill-rule="evenodd">
        <mask id="d" fill="#fff">
            <use xlink:href="#a"/>
        </mask>
        <g fill="#FFF" stroke="#1D71B8" stroke-width="14" mask="url(#b)">
            <use mask="url(#c)" xlink:href="#a"/>
        </g>
        <path fill="#1D71B8" d="M130.35 116.932c0-10.533-5.53-12.355-12.357-12.355-6.828 0-12.36 5.528-12.36 12.355v48.182h-4.94V31.68c0-6.823-5.533-12.355-12.36-12.355-6.828 0-12.358 5.532-12.358 12.355v95.132H71.03V16.854C71.032 10.034 65.5 4.5 58.675 4.5c-6.824 0-12.357 5.535-12.357 12.354v109.958h-4.943V31.68c0-6.823-5.533-12.355-12.36-12.355-6.825 0-12.358 5.532-12.358 12.355v102.548h-4.943v-58.07c0-6.822-5.532-12.354-12.357-12.354C-7.467 63.804-13 69.336-13 79.865v102.548c.01 32.167 32.086 64.236 71.675 64.246 39.59-.01 71.665-32.079 71.675-71.662l.004-.003-.004-58.062" mask="url(#d)"/>
    </g>
</svg>
