<svg xmlns="http://www.w3.org/2000/svg" xmlns:xlink="http://www.w3.org/1999/xlink" width="44" height="44" viewBox="0 0 44 44">
    <defs>
        <rect id="a" width="44" height="44" rx="10"/>
    </defs>
    <g fill="none" fill-rule="evenodd">
        <use fill="#1D71B8" xlink:href="#a"/>
        <g fill="#FFF">
            <path d="M14.063 11.067h10.211v4.544a.23.23 0 0 0 .231.23h4.472v1.917a3.713 3.713 0 0 1 2.062.034v-2.458c0-.274-.11-.535-.304-.73l-5.3-5.301A1.045 1.045 0 0 0 24.707 9H13.033c-.272 0-.537.11-.73.303a1.038 1.038 0 0 0-.303.73v24.049c0 .271.11.535.302.73.192.191.457.302.731.302h11.746v-2.066H14.063V11.067z"/>
            <path d="M29.956 29.001a4.991 4.991 0 0 0 4.986-4.995 4.99 4.99 0 0 0-4.986-4.995 4.99 4.99 0 0 0-4.988 4.995 4.992 4.992 0 0 0 4.988 4.995M27 37.376l2.934-2.138L33 37.445v-7.809a4.942 4.942 0 0 1-3.044 1.044A4.94 4.94 0 0 1 27 29.703v7.673z"/>
        </g>
    </g>
</svg>
