<svg xmlns="http://www.w3.org/2000/svg" xmlns:xlink="http://www.w3.org/1999/xlink" width="44" height="44" viewBox="0 0 44 44">
    <defs>
        <rect id="a" width="44" height="44" rx="10"/>
    </defs>
    <g fill="none" fill-rule="evenodd">
        <use fill="#95C11F" xlink:href="#a"/>
        <path fill="#FFF" d="M12.503 25.702c2.003 1.97 5.343 1.97 7.347 0 .534-.526.868-1.117 1.135-1.774h6.411V28h1.87v-1.576h1.737l.067-2.561h2.538v-3.678l-12.623.066c-.267-.657-.6-1.248-1.135-1.773-2.004-1.97-5.344-1.97-7.347 0-2.004 1.97-2.004 5.253 0 7.224m1.594-1.567a2.83 2.83 0 0 1 0-4.09 2.948 2.948 0 0 1 4.16 0 2.83 2.83 0 0 1 0 4.09 2.948 2.948 0 0 1-4.16 0"/>
    </g>
</svg>
