<svg xmlns="http://www.w3.org/2000/svg" xmlns:xlink="http://www.w3.org/1999/xlink" width="44" height="44" viewBox="0 0 44 44">
    <defs>
        <rect id="a" width="44" height="44" rx="10"/>
    </defs>
    <g fill="none" fill-rule="evenodd">
        <mask id="b" fill="#fff">
            <use xlink:href="#a"/>
        </mask>
        <use fill="#F9B233" xlink:href="#a"/>
        <g fill="#FFF" mask="url(#b)">
            <path d="M22.077 15.525a.97.97 0 0 0-.974.965v5.644a.97.97 0 0 0 .974.966.97.97 0 0 0 .975-.966V16.49a.967.967 0 0 0-.975-.965z"/>
            <path d="M22.08 11.173c-6.101 0-11.064 4.917-11.064 10.961 0 6.045 4.965 10.963 11.063 10.963 6.101 0 11.064-4.918 11.064-10.963.002-6.044-4.963-10.961-11.064-10.961zm-.069 19.5c-4.686 0-8.5-3.814-8.5-8.502 0-4.687 3.814-8.498 8.5-8.498 4.687 0 8.5 3.814 8.5 8.498 0 4.688-3.813 8.502-8.5 8.502zM22.872 8h-1.606c-.888 0-1.605.713-1.605 1.591v.695h4.817V9.59c0-.878-.717-1.591-1.606-1.591z"/>
        </g>
    </g>
</svg>
