<svg xmlns="http://www.w3.org/2000/svg" width="44" height="44" viewBox="0 0 44 44">
    <g fill="none" fill-rule="evenodd">
        <rect width="44" height="44" fill="#E8308A" rx="10"/>
        <path fill="#FFF" d="M21.636 7.063l-10.972 4A1.025 1.025 0 0 0 10 12v12.666c0 2.756 1.698 5.01 3.9 6.926 2.202 1.917 4.98 3.575 7.532 5.23a.99.99 0 0 0 1.136 0c2.552-1.655 5.33-3.313 7.532-5.23 2.202-1.917 3.9-4.17 3.9-6.926V12a1.025 1.025 0 0 0-.664-.937l-10.972-4c-.259-.096-.494-.072-.728 0zm.364 2l9.943 3.624v11.979c0 1.954-1.216 3.697-3.214 5.437-1.852 1.61-4.317 3.145-6.729 4.697-2.412-1.552-4.877-3.085-6.729-4.697-1.998-1.74-3.214-3.483-3.214-5.437V12.687L22 9.063zm0 6.603c-.568 0-1.029.448-1.029 1v6.916l-1.67-1.625a1.053 1.053 0 0 0-1.458 0c-.402.391-.398 1.01 0 1.417l3.385 3.291c.19.207.467.334.772.334s.582-.127.772-.334l3.385-3.29a.985.985 0 0 0 0-1.418 1.053 1.053 0 0 0-1.457 0l-1.671 1.625v-6.916c0-.552-.461-1-1.029-1z"/>
    </g>
</svg>
