<?xml version="1.0" encoding="UTF-8" standalone="no"?>
<svg width="56px" height="56px" viewBox="0 0 56 56" version="1.1" xmlns="http://www.w3.org/2000/svg" xmlns:xlink="http://www.w3.org/1999/xlink">
    <!-- Generator: sketchtool 39 (31667) - http://www.bohemiancoding.com/sketch -->
    <title>0D1A6FC3-2DE4-465B-9E8F-9BA34C3A77F5</title>
    <desc>Created with sketchtool.</desc>
    <defs></defs>
    <g id="Yona-APP" stroke="none" stroke-width="1" fill="none" fill-rule="evenodd">
        <g id="Symbols-android" transform="translate(-167.000000, -235.000000)">
            <g id="adult_sad" transform="translate(167.000000, 235.000000)">
                <ellipse id="Oval-pink" fill="#E8308A" fill-rule="evenodd" cx="28" cy="28" rx="27" ry="27"></ellipse>
                <g id="iconsad" stroke-width="1" fill-rule="evenodd" transform="translate(11.000000, 18.000000)" stroke="#E8308A" fill="#FFFFFF">
                    <path d="M17.163794,24.650408 C12.8528812,24.650408 8.54472208,23.0098929 5.26438042,19.7288628 L7.33516063,17.658771 C12.7565018,23.0801122 21.5765936,23.0773585 26.9979347,17.6560173 L29.0687149,19.7267976 C25.7849312,23.0098929 21.4719531,24.650408 17.163794,24.650408 L17.163794,24.650408 Z" id="Fill-1" stroke-width="0.5" transform="translate(17.166548, 21.153213) scale(1, -1) translate(-17.166548, -21.153213) "></path>
                    <path d="M10.4378888,4.75838858 C8.15507394,2.47557369 4.44102499,2.47557369 2.1582101,4.75838858 L0.0874298827,2.68829679 C3.51096379,-0.735237124 9.08306986,-0.735237124 12.5059153,2.68829679 L10.4378888,4.75838858 Z" id="Fill-2" stroke-width="0.5"></path>
                    <path d="M32.1693779,4.75838858 C29.8858746,2.47557369 26.172514,2.47557369 23.8890107,4.75838858 L21.8189189,2.68829679 C25.2417644,-0.735237124 30.8138705,-0.735237124 34.2374044,2.68829679 L32.1693779,4.75838858 Z" id="Fill-3" stroke-width="0.5"></path>
                </g>
                <rect id="bounds" x="0" y="0" width="56" height="56"></rect>
            </g>
        </g>
    </g>
</svg>