<?xml version="1.0" encoding="UTF-8" standalone="no"?>
<svg width="56px" height="56px" viewBox="0 0 56 56" version="1.1" xmlns="http://www.w3.org/2000/svg" xmlns:xlink="http://www.w3.org/1999/xlink">
    <!-- Generator: sketchtool 39 (31667) - http://www.bohemiancoding.com/sketch -->
    <title>CD3ABD6C-458B-4C47-AAD3-FED714C89D65</title>
    <desc>Created with sketchtool.</desc>
    <defs>
        <path d="M46.5060734,27.7163107 C46.3112816,25.768392 45.4081556,23.9090151 43.9472166,22.545472 C42.4331526,21.137658 40.4675255,20.3584906 38.3956484,20.3584906 C34.7211654,20.3584906 31.5513705,22.7845347 30.5597028,26.2907884 C29.9399105,25.6709961 28.9216803,25.2548498 27.9654293,25.2548498 C27.0091783,25.2548498 25.9909481,25.6709961 25.3711558,26.2907884 C24.3794881,22.7845347 21.2096931,20.3584906 17.5352102,20.3584906 C15.4721872,20.3584906 13.497706,21.1288039 11.983642,22.5366178 C10.5227029,23.9090151 9.61957701,25.768392 9.42478514,27.7163107 L8.13207547,27.7163107 L8.13207547,29.3100623 L9.42478514,29.3100623 C9.61957701,31.257981 10.5227029,33.1173579 11.983642,34.480901 C13.497706,35.8887149 15.463333,36.6678824 17.5352102,36.6678824 C22.0331315,36.6678824 25.6899061,33.019962 25.6899061,28.5220407 L25.6899061,28.5131865 L25.6899061,28.5131865 C25.6899061,27.6366231 26.7081363,26.6006845 27.9654293,26.6006845 C29.2227223,26.6006845 30.2409525,27.6366231 30.2409525,28.5131865 L30.2409525,28.5131865 C30.2409525,28.5131865 30.2409525,28.5131865 30.2409525,28.5220407 C30.2409525,33.019962 33.8977271,36.6678824 38.3956484,36.6678824 C40.4586714,36.6678824 42.4331526,35.8975691 43.9472166,34.480901 C45.4081556,33.1173579 46.3112816,31.2491268 46.5060734,29.3012081 L47.7987831,29.3012081 L47.7987831,27.7074565 L46.5060734,27.7074565 L46.5060734,27.7163107 Z M38.3956484,35.3309019 C34.6326237,35.3309019 31.577933,32.267357 31.577933,28.5131865 C31.577933,24.7501618 34.6414779,21.6954711 38.3956484,21.6954711 C42.1586731,21.6954711 45.2133638,24.7590159 45.2133638,28.5131865 C45.2133638,32.2762112 42.1586731,35.3309019 38.3956484,35.3309019 L38.3956484,35.3309019 Z M17.5352102,35.3309019 C13.7721855,35.3309019 10.7174948,32.267357 10.7174948,28.5131865 C10.7174948,24.7501618 13.7810396,21.6954711 17.5352102,21.6954711 C21.2982349,21.6954711 24.3529256,24.7590159 24.3529256,28.5131865 C24.3529256,32.2762112 21.2982349,35.3309019 17.5352102,35.3309019 L17.5352102,35.3309019 Z" id="path-1"></path>
        <mask id="mask-2" maskContentUnits="userSpaceOnUse" maskUnits="objectBoundingBox" x="-0.3" y="-0.3" width="40.2667076" height="16.9093918">
            <rect x="7.83207547" y="20.0584906" width="40.2667076" height="16.9093918" fill="white"></rect>
            <use xlink:href="#path-1" fill="black"></use>
        </mask>
    </defs>
    <g id="Yona-APP" stroke="none" stroke-width="1" fill="none" fill-rule="evenodd">
        <g id="Symbols-android" transform="translate(-167.000000, -318.000000)">
            <g id="adult_review" transform="translate(167.000000, 318.000000)">
                <ellipse id="Oval-yellow" fill="#F9B233" fill-rule="evenodd" cx="27.745283" cy="27.745283" rx="26.745283" ry="26.745283"></ellipse>
                <g id="Shape-Copy">
                    <use fill="#FFFFFF" fill-rule="evenodd" xlink:href="#path-1"></use>
                    <use stroke="#FFFFFF" mask="url(#mask-2)" stroke-width="0.6" xlink:href="#path-1"></use>
                </g>
                <rect id="bounds" x="0" y="0" width="56" height="56"></rect>
            </g>
        </g>
    </g>
</svg>