<svg xmlns="http://www.w3.org/2000/svg" xmlns:xlink="http://www.w3.org/1999/xlink" width="256" height="256" viewBox="0 0 256 256">
    <defs>
        <circle id="a" cx="128" cy="128" r="128"/>
        <mask id="b" width="256" height="256" x="0" y="0" fill="#fff">
            <use xlink:href="#a"/>
        </mask>
        <mask id="c" width="256" height="256" x="0" y="0" fill="#fff">
            <use xlink:href="#a"/>
        </mask>
    </defs>
    <g fill="none" fill-rule="evenodd">
        <mask id="d" fill="#fff">
            <use xlink:href="#a"/>
        </mask>
        <g fill="#FFF" stroke="#95C11F" stroke-width="14" mask="url(#b)">
            <use mask="url(#c)" xlink:href="#a"/>
        </g>
        <path fill="#95C11F" d="M255.6 165.47c-10.71-6.179-23.181-7.823-35.122-4.625a45.93 45.93 0 0 0-21.33 12.627l-59.636-34.428c1.34-4.358 2.076-8.926 2.076-13.6a46.14 46.14 0 0 0-2.065-13.535l59.37-34.278a46.053 46.053 0 0 0 10.42 8.258c10.707 6.182 23.181 7.823 35.122 4.625 11.945-3.202 21.927-10.86 28.106-21.565a46.263 46.263 0 0 0 6.21-23.107c0-16.501-8.875-31.876-23.155-40.119-10.706-6.178-23.18-7.822-35.122-4.624-11.942 3.201-21.923 10.859-28.106 21.564a46.28 46.28 0 0 0-6.206 23.107c0 4.824.781 9.535 2.204 14.013L129.158 93.97a45.893 45.893 0 0 0-21.885-13.194c-11.942-3.206-24.42-1.562-35.122 4.62C57.87 93.64 49 109.012 49 125.512a46.322 46.322 0 0 0 6.21 23.108c6.178 10.705 16.16 18.362 28.105 21.564 11.941 3.202 24.416 1.558 35.122-4.62 4.04-2.331 7.62-5.244 10.714-8.577l59.309 34.233a46.194 46.194 0 0 0-2.294 14.297c0 16.505 8.87 31.872 23.147 40.119 10.71 6.182 23.181 7.826 35.122 4.62 11.945-3.201 21.927-10.859 28.106-21.564a46.224 46.224 0 0 0 6.21-23.107c0-16.501-8.871-31.872-23.151-40.115" mask="url(#d)"/>
        <path d="M0 0h256v256H0z"/>
    </g>
</svg>
