<svg xmlns="http://www.w3.org/2000/svg" xmlns:xlink="http://www.w3.org/1999/xlink" width="256" height="256" viewBox="0 0 256 256">
    <defs>
        <circle id="a" cx="128" cy="128" r="128"/>
        <mask id="b" width="256" height="256" x="0" y="0" fill="#fff">
            <use xlink:href="#a"/>
        </mask>
        <mask id="c" width="256" height="256" x="0" y="0" fill="#fff">
            <use xlink:href="#a"/>
        </mask>
    </defs>
    <g fill="none" fill-rule="evenodd">
        <mask id="d" fill="#fff">
            <use xlink:href="#a"/>
        </mask>
        <g fill="#FFF" stroke="#E8308A" stroke-width="14" mask="url(#b)">
            <use mask="url(#c)" xlink:href="#a"/>
        </g>
        <path fill="#E8308A" d="M221.37 37a91.57 91.57 0 0 0-46.428 12.647l-.619-.377-.071.043A91.558 91.558 0 0 0 128.413 37C78.005 37 37 77.803 37 127.958c0 50.156 41.005 90.962 91.413 90.962 16.155 0 31.94-4.28 45.835-12.313l.075.046.623-.38a91.547 91.547 0 0 0 46.425 12.647c50.408 0 91.417-40.806 91.417-90.962C312.788 77.803 271.779 37 221.37 37zm-48.212 160.439a85.41 85.41 0 0 1-5.367-3.906 86.376 86.376 0 0 1-3.279-2.754c-.379-.334-.765-.662-1.14-1.003h21.954a84.248 84.248 0 0 1-10.963 8.46 54.15 54.15 0 0 1-1.205-.797zm-5.306-135.098a83.436 83.436 0 0 1 5.213-3.8c.433-.291.865-.576 1.301-.86a84.875 84.875 0 0 1 10.699 8.218h-21.411c.386-.349.78-.69 1.173-1.036a89.2 89.2 0 0 1 3.025-2.522zm-11.406 120.32a84.145 84.145 0 0 1-3.947-4.92c-.394-.534-.802-1.057-1.184-1.602a84.223 84.223 0 0 1-3.798-5.824h53.613a84.174 84.174 0 0 1-8.871 12.346h-35.813zm-12.633-19.46l-.429-.93a82.395 82.395 0 0 1-1.73-4.144c-.19-.484-.39-.964-.569-1.451a81.252 81.252 0 0 1-1.845-5.643c-.018-.057-.032-.12-.05-.181h70.31a83.439 83.439 0 0 1-4.623 12.348h-61.064zm-6.293-19.465c-.046-.238-.1-.476-.143-.715a86.474 86.474 0 0 1-.719-4.65c-.039-.327-.1-.65-.135-.978a80.386 80.386 0 0 1-.433-5.46c-.01-.182-.007-.364-.014-.542h76.531a82.911 82.911 0 0 1-1.416 12.345h-73.67zm-1.437-19.46c.007-.164.003-.324.014-.484.093-1.84.236-3.678.454-5.514.036-.324.097-.648.136-.971.2-1.544.443-3.081.73-4.618.046-.253.1-.502.15-.75h73.578a83.636 83.636 0 0 1 1.451 12.337h-76.513zm73.345-19.453h-70.167c.018-.064.033-.128.05-.189.551-1.9 1.18-3.778 1.863-5.631.186-.498.394-.986.587-1.48.54-1.38 1.115-2.75 1.727-4.099.146-.316.293-.633.443-.946h60.828a83.23 83.23 0 0 1 4.67 12.345zm-61.764-19.46l.014-.025c1.173-1.975 2.45-3.878 3.776-5.746.404-.57.833-1.124 1.252-1.683a85.54 85.54 0 0 1 3.096-3.892c.282-.338.572-.669.862-1.003h35.39a84.179 84.179 0 0 1 8.933 12.349h-53.323zm73.707 126.442a84.532 84.532 0 0 1-39.081-9.553 91.785 91.785 0 0 0 15.386-13.66 91.078 91.078 0 0 0 13.787-20.255c6.304-12.633 9.5-26.22 9.5-40.514-.021-14.21-3.26-27.831-9.629-40.493a90.992 90.992 0 0 0-13.877-20.254l-.625.562v-.003l.625-.562a92.102 92.102 0 0 0-15.164-13.402 84.466 84.466 0 0 1 39.078-9.556c46.46 0 84.262 37.615 84.262 83.843 0 46.235-37.801 83.847-84.262 83.847z" mask="url(#d)"/>
    </g>
</svg>
