<svg xmlns="http://www.w3.org/2000/svg" xmlns:xlink="http://www.w3.org/1999/xlink" width="256" height="256" viewBox="0 0 256 256">
    <defs>
        <circle id="a" cx="128" cy="128" r="128"/>
        <mask id="b" width="256" height="256" x="0" y="0" fill="#fff">
            <use xlink:href="#a"/>
        </mask>
        <mask id="c" width="256" height="256" x="0" y="0" fill="#fff">
            <use xlink:href="#a"/>
        </mask>
    </defs>
    <g fill="none" fill-rule="evenodd">
        <mask id="d" fill="#fff">
            <use xlink:href="#a"/>
        </mask>
        <g fill="#FFF" stroke="#F9B233" stroke-width="14" mask="url(#b)">
            <use mask="url(#c)" xlink:href="#a"/>
        </g>
        <path fill="#F9B233" d="M192.87 294.558h-.161c-4.408 0-6.104-1.196-6.616-1.679-.184-60.266-28.954-91.888-46.067-105.383C157.14 174 185.91 142.379 186.093 82.108c.512-.482 2.208-1.679 6.616-1.679h.162c3.138 0 5.97-1.715 7.799-4.773 2.56-4.31 2.752-10.355.45-14.393-1.756-3.08-4.721-4.763-8.357-4.763h-65.149v69.598V56.5H62.462c-3.636 0-6.601 1.682-8.354 4.763-2.305 4.038-2.11 10.084.447 14.393 1.832 3.058 4.664 4.773 7.802 4.773h.163c4.407 0 6.103 1.197 6.611 1.68.188 60.27 28.959 91.89 46.07 105.387-17.111 13.495-45.882 45.117-46.07 105.383-.508.483-2.204 1.68-6.611 1.68h-.163c-3.138 0-5.97 1.718-7.802 4.773-2.557 4.312-2.752 10.354-.447 14.396 1.753 3.08 4.718 4.76 8.354 4.76h65.152V248.89v69.598h65.149c3.636 0 6.6-1.68 8.357-4.76 2.302-4.042 2.11-10.084-.45-14.396-1.83-3.055-4.66-4.774-7.8-4.774" mask="url(#d)"/>
    </g>
</svg>
